# xmcd CD database file
#
# Track frame offsets:
#	150
#	38764
#	64352
#	78402
#	102050
#	112752
#	141687
#	152157
#	171840
#	190492
#	209230
#	228857
#	241875
#
# Disc length: 3657 seconds
#
# Revision: 1
# Processed by: cddbd v1.4PL0 Copyright (c) Steve Scherf et al.
# Submitted via: Feurio! 1.65 - http://www.feurio.com
#
DISCID=b60e470d
DTITLE=Various Artist - Women In Blue CD1
DYEAR=1900
DGENRE=
TTITLE0=??? - ABBEY LINCOLN - Bird Alone
TTITLE1=??? - BILLIE HOLIDAY - One For My Baby
TTITLE2=??? - DINAH WASHINGTON - My Old Flame
TTITLE3=??? - HELEN MERRIL - Born To Be Blue
TTITLE4=??? - ELLA FITZGERALD - Azure
TTITLE5=??? - DIANE SCHUUR - I'm Not Ashamed To Sing The Blues
TTITLE6=??? - SARAH VAUGHAN - I Cried For You
TTITLE7=??? - BLOSSOM DEARIE - The Party's Over
TTITLE8=??? - LAURA FYGI - Good Morning Heartache
TTITLE9=??? - CASSANDRA WILSON - Blue In Green
TTITLE10=??? - SILJE NERGAARD - Japanese Blue
TTITLE11=??? - PATTI PAGE - The Thrill Is Gone
TTITLE12=??? - TERI THORNTON - Knee Deep (In The Blues)
EXTD=
EXTT0=
EXTT1=
EXTT2=
EXTT3=
EXTT4=
EXTT5=
EXTT6=
EXTT7=
EXTT8=
EXTT9=
EXTT10=
EXTT11=
EXTT12=
PLAYORDER=
